<svg id="highon3d" xmlns="http://www.w3.org/2000/svg" viewBox="0 0 714 210"><defs><style>.cls-1,.cls-2{fill:none;}.cls-2,.cls-5{stroke:#00a99d;stroke-miterlimit:10;}.cls-2{stroke-width:7px;}.cls-3{fill:#004c4a;}.cls-4{fill:#62b0ad;}.cls-5{fill:#014c48;stroke-width:5px;}</style></defs><title>Highon3d</title><ellipse class="cls-1" cx="418.5" cy="109" rx="74" ry="73.5"/><circle class="cls-2" cx="418.75" cy="108.75" r="73.75"/><path class="cls-3" d="M596,697.65h21.33v34.57h32.56V697.65h21.33v89.7H649.89V749.9H617.33v37.45H596Z" transform="translate(-559 -629)"/><path class="cls-3" d="M682.55,696.65h21.33v89.7H682.55Z" transform="translate(-559 -629)"/><path class="cls-3" d="M719.66,743c0-29.76,20.79-47,46-47a41.92,41.92,0,0,1,29.77,11.64l-11.24,13c-4.68-4.1-9.72-7.14-17.81-7.14-14.52,0-24.84,10.84-24.84,28.83,0,18.44,8.79,29.15,26.54,29.15,3.78,0,7.7-.94,10-2.67V753.34H762.42V736.78H797v41.36c-6.5,6.05-18,10.86-31.12,10.86C739.87,789,719.66,773.23,719.66,743Z" transform="translate(-559 -629)"/><path class="cls-3" d="M816.46,697.65h21.33v34.57h32.56V697.65h21.33v89.7H870.35V749.9H837.79v37.45H816.46Z" transform="translate(-559 -629)"/><path class="cls-3" d="M1023.64,720.45h9.84l1,9.65h.4c6.7-6.27,13.94-11.3,23.6-11.3,14.82,0,21.48,9.1,21.48,26.16v42.39h-11.91V746.42c0-12.46-4-17.79-13.27-17.79-7.19,0-12.18,3.49-19.23,10.27v48.45h-11.91Z" transform="translate(-559 -629)"/><path class="cls-4" d="M1091.7,776.61l6-7.38c5.56,5.48,12.76,10.35,23.58,10.35,11.21,0,19.17-6.24,19.17-16.09,0-10.43-7.56-17.42-29.46-17.42v-8.68c19.55,0,26.2-7.16,26.2-16.35,0-8.53-6.17-13.9-16-13.9-7.73,0-14.26,3.7-19.69,8.9l-6.41-7.18c7.15-6.29,15.6-10.94,26.53-10.94,16,0,27.61,8.12,27.61,22.29,0,10.57-6.75,17.33-16.77,20.85v.55c11.15,2.51,20,10.26,20,22.31,0,15.65-13.57,25.08-30.48,25.08C1107.22,789,1097.92,783.1,1091.7,776.61Z" transform="translate(-559 -629)"/><path class="cls-3" d="M1164,698.65h26.67c28.81,0,47.37,13.63,47.37,44.46s-18.56,45.24-46.18,45.24H1164ZM1189.33,772c16,0,26.82-7.46,26.82-28.91S1205.33,715,1189.33,715h-4v57Z" transform="translate(-559 -629)"/><circle class="cls-5" cx="455.75" cy="50.75" r="15.75"/><rect id="_Slice_" data-name="&lt;Slice&gt;" class="cls-1" width="714" height="210"/><ellipse class="cls-1" cx="418.5" cy="109" rx="74" ry="73.5"/><circle class="cls-2" cx="418.75" cy="108.75" r="73.75"/><path class="cls-3" d="M596,697.65h21.33v34.57h32.56V697.65h21.33v89.7H649.89V749.9H617.33v37.45H596Z" transform="translate(-559 -629)"/><path class="cls-3" d="M682.55,696.65h21.33v89.7H682.55Z" transform="translate(-559 -629)"/><path class="cls-3" d="M719.66,743c0-29.76,20.79-47,46-47a41.92,41.92,0,0,1,29.77,11.64l-11.24,13c-4.68-4.1-9.72-7.14-17.81-7.14-14.52,0-24.84,10.84-24.84,28.83,0,18.44,8.79,29.15,26.54,29.15,3.78,0,7.7-.94,10-2.67V753.34H762.42V736.78H797v41.36c-6.5,6.05-18,10.86-31.12,10.86C739.87,789,719.66,773.23,719.66,743Z" transform="translate(-559 -629)"/><path class="cls-3" d="M816.46,697.65h21.33v34.57h32.56V697.65h21.33v89.7H870.35V749.9H837.79v37.45H816.46Z" transform="translate(-559 -629)"/><path class="cls-3" d="M1023.64,720.45h9.84l1,9.65h.4c6.7-6.27,13.94-11.3,23.6-11.3,14.82,0,21.48,9.1,21.48,26.16v42.39h-11.91V746.42c0-12.46-4-17.79-13.27-17.79-7.19,0-12.18,3.49-19.23,10.27v48.45h-11.91Z" transform="translate(-559 -629)"/><path class="cls-4" d="M1091.7,776.61l6-7.38c5.56,5.48,12.76,10.35,23.58,10.35,11.21,0,19.17-6.24,19.17-16.09,0-10.43-7.56-17.42-29.46-17.42v-8.68c19.55,0,26.2-7.16,26.2-16.35,0-8.53-6.17-13.9-16-13.9-7.73,0-14.26,3.7-19.69,8.9l-6.41-7.18c7.15-6.29,15.6-10.94,26.53-10.94,16,0,27.61,8.12,27.61,22.29,0,10.57-6.75,17.33-16.77,20.85v.55c11.15,2.51,20,10.26,20,22.31,0,15.65-13.57,25.08-30.48,25.08C1107.22,789,1097.92,783.1,1091.7,776.61Z" transform="translate(-559 -629)"/><path class="cls-3" d="M1164,698.65h26.67c28.81,0,47.37,13.63,47.37,44.46s-18.56,45.24-46.18,45.24H1164ZM1189.33,772c16,0,26.82-7.46,26.82-28.91S1205.33,715,1189.33,715h-4v57Z" transform="translate(-559 -629)"/><circle class="cls-5" cx="455.75" cy="50.75" r="15.75"/><rect id="_Slice_2" data-name="&lt;Slice&gt;" class="cls-1" width="714" height="210"/><ellipse class="cls-1" cx="418.5" cy="109" rx="74" ry="73.5"/><circle class="cls-2" cx="418.75" cy="108.75" r="73.75"/><path class="cls-3" d="M596,697.65h21.33v34.57h32.56V697.65h21.33v89.7H649.89V749.9H617.33v37.45H596Z" transform="translate(-559 -629)"/><path class="cls-3" d="M682.55,696.65h21.33v89.7H682.55Z" transform="translate(-559 -629)"/><path class="cls-3" d="M719.66,743c0-29.76,20.79-47,46-47a41.92,41.92,0,0,1,29.77,11.64l-11.24,13c-4.68-4.1-9.72-7.14-17.81-7.14-14.52,0-24.84,10.84-24.84,28.83,0,18.44,8.79,29.15,26.54,29.15,3.78,0,7.7-.94,10-2.67V753.34H762.42V736.78H797v41.36c-6.5,6.05-18,10.86-31.12,10.86C739.87,789,719.66,773.23,719.66,743Z" transform="translate(-559 -629)"/><path class="cls-3" d="M816.46,697.65h21.33v34.57h32.56V697.65h21.33v89.7H870.35V749.9H837.79v37.45H816.46Z" transform="translate(-559 -629)"/><path class="cls-3" d="M1023.64,720.45h9.84l1,9.65h.4c6.7-6.27,13.94-11.3,23.6-11.3,14.82,0,21.48,9.1,21.48,26.16v42.39h-11.91V746.42c0-12.46-4-17.79-13.27-17.79-7.19,0-12.18,3.49-19.23,10.27v48.45h-11.91Z" transform="translate(-559 -629)"/><path class="cls-4" d="M1091.7,776.61l6-7.38c5.56,5.48,12.76,10.35,23.58,10.35,11.21,0,19.17-6.24,19.17-16.09,0-10.43-7.56-17.42-29.46-17.42v-8.68c19.55,0,26.2-7.16,26.2-16.35,0-8.53-6.17-13.9-16-13.9-7.73,0-14.26,3.7-19.69,8.9l-6.41-7.18c7.15-6.29,15.6-10.94,26.53-10.94,16,0,27.61,8.12,27.61,22.29,0,10.57-6.75,17.33-16.77,20.85v.55c11.15,2.51,20,10.26,20,22.31,0,15.65-13.57,25.08-30.48,25.08C1107.22,789,1097.92,783.1,1091.7,776.61Z" transform="translate(-559 -629)"/><path class="cls-3" d="M1164,698.65h26.67c28.81,0,47.37,13.63,47.37,44.46s-18.56,45.24-46.18,45.24H1164ZM1189.33,772c16,0,26.82-7.46,26.82-28.91S1205.33,715,1189.33,715h-4v57Z" transform="translate(-559 -629)"/><circle class="cls-5" cx="455.75" cy="50.75" r="15.75"/><rect id="_Slice_3" data-name="&lt;Slice&gt;" class="cls-1" width="714" height="210"/><ellipse class="cls-1" cx="418.5" cy="109" rx="74" ry="73.5"/><circle class="cls-2" cx="418.75" cy="108.75" r="73.75"/><path class="cls-3" d="M596,697.65h21.33v34.57h32.56V697.65h21.33v89.7H649.89V749.9H617.33v37.45H596Z" transform="translate(-559 -629)"/><path class="cls-3" d="M682.55,696.65h21.33v89.7H682.55Z" transform="translate(-559 -629)"/><path class="cls-3" d="M719.66,743c0-29.76,20.79-47,46-47a41.92,41.92,0,0,1,29.77,11.64l-11.24,13c-4.68-4.1-9.72-7.14-17.81-7.14-14.52,0-24.84,10.84-24.84,28.83,0,18.44,8.79,29.15,26.54,29.15,3.78,0,7.7-.94,10-2.67V753.34H762.42V736.78H797v41.36c-6.5,6.05-18,10.86-31.12,10.86C739.87,789,719.66,773.23,719.66,743Z" transform="translate(-559 -629)"/><path class="cls-3" d="M816.46,697.65h21.33v34.57h32.56V697.65h21.33v89.7H870.35V749.9H837.79v37.45H816.46Z" transform="translate(-559 -629)"/><path class="cls-3" d="M1023.64,720.45h9.84l1,9.65h.4c6.7-6.27,13.94-11.3,23.6-11.3,14.82,0,21.48,9.1,21.48,26.16v42.39h-11.91V746.42c0-12.46-4-17.79-13.27-17.79-7.19,0-12.18,3.49-19.23,10.27v48.45h-11.91Z" transform="translate(-559 -629)"/><path class="cls-4" d="M1091.7,776.61l6-7.38c5.56,5.48,12.76,10.35,23.58,10.35,11.21,0,19.17-6.24,19.17-16.09,0-10.43-7.56-17.42-29.46-17.42v-8.68c19.55,0,26.2-7.16,26.2-16.35,0-8.53-6.17-13.9-16-13.9-7.73,0-14.26,3.7-19.69,8.9l-6.41-7.18c7.15-6.29,15.6-10.94,26.53-10.94,16,0,27.61,8.12,27.61,22.29,0,10.57-6.75,17.33-16.77,20.85v.55c11.15,2.51,20,10.26,20,22.31,0,15.65-13.57,25.08-30.48,25.08C1107.22,789,1097.92,783.1,1091.7,776.61Z" transform="translate(-559 -629)"/><path class="cls-3" d="M1164,698.65h26.67c28.81,0,47.37,13.63,47.37,44.46s-18.56,45.24-46.18,45.24H1164ZM1189.33,772c16,0,26.82-7.46,26.82-28.91S1205.33,715,1189.33,715h-4v57Z" transform="translate(-559 -629)"/><circle class="cls-5" cx="455.75" cy="50.75" r="15.75"/><rect id="_Slice_4" data-name="&lt;Slice&gt;" class="cls-1" width="714" height="210"/></svg>