<svg id="Layer_3" data-name="Layer 3" xmlns="http://www.w3.org/2000/svg" viewBox="0 0 384.55 519.98"><defs><style>.cls-1{fill:#2b308b;}.cls-2,.cls-3{fill:#fff;}.cls-2{stroke:#000;stroke-miterlimit:10;stroke-width:5px;}</style></defs><title>Databyte</title><path class="cls-1" d="M990,157l-52,48V346s-80-10-81,91c0,0-1,78,86,79,0,0,39,1,65-30l4-308Z" transform="translate(-823.45 -102)"/><path class="cls-1" d="M1028,157l46-55,47,60-26,31V341s85,7,73,96c0,0,4,59-69,72,0,0-33,7-71-17Z" transform="translate(-823.45 -102)"/><path class="cls-2" d="M1034,435.92l57.33-33.1a2.11,2.11,0,0,1,3.16,1.83V427.5h105.84a5.16,5.16,0,0,1,5.16,5.16v11.68a5.16,5.16,0,0,1-5.16,5.16H1094.5v21.35a2.1,2.1,0,0,1-3.16,1.82L1034,439.57A2.1,2.1,0,0,1,1034,435.92Z" transform="translate(-823.45 -102)"/><path class="cls-2" d="M997.45,435.92l-57.34-33.1a2.11,2.11,0,0,0-3.16,1.83V427.5H831.11a5.16,5.16,0,0,0-5.16,5.16v11.68a5.16,5.16,0,0,0,5.16,5.16H937v21.35a2.1,2.1,0,0,0,3.16,1.82l57.34-33.1A2.11,2.11,0,0,0,997.45,435.92Z" transform="translate(-823.45 -102)"/><rect class="cls-3" x="136.05" y="327" width="122" height="17"/><path class="cls-1" d="M845.17,581.56c0-14.11,9.24-22.87,19.55-22.87,5.26,0,8.7,1.9,12.67,5l-.32-7.45V539.52h7.64v63.72H878.4l-.65-5.13h-.25c-3.52,3.38-8.33,6.2-13.72,6.2C852.49,604.31,845.17,596.05,845.17,581.56Zm31.9,10.63V569.4c-3.86-3.31-7.34-4.52-11-4.52-7.22,0-13,6.7-13,16.61,0,10.43,4.48,16.63,12.4,16.63C869.65,598.12,873.28,596.16,877.07,592.19Z" transform="translate(-823.45 -102)"/><path class="cls-1" d="M897.19,592c0-9.47,8.5-14.21,27.77-16.22,0-5.6-2-11-9.33-11-5.23,0-9.94,2.38-13.48,4.66l-3-5c4.16-2.62,10.5-5.67,17.76-5.67,11,0,15.69,7,15.69,17.88v26.67h-6.31l-.65-5.2h-.26c-4.3,3.45-9.33,6.27-14.94,6.27C902.87,604.31,897.19,599.8,897.19,592Zm27.77.68V580.56c-15.15,1.75-20.27,5.32-20.27,10.87,0,5,3.48,7,7.92,7S920.58,596.34,925,592.63Z" transform="translate(-823.45 -102)"/><path class="cls-1" d="M946.9,589.8v-24h-6.73v-5.57l7.07-.42.92-12.19h6.39v12.19h12.24v6H954.55v24.17c0,5.32,1.78,8.4,7,8.4a15.5,15.5,0,0,0,5.15-1.17l1.47,5.55a28.06,28.06,0,0,1-8.38,1.61C950.16,604.31,946.9,598.45,946.9,589.8Z" transform="translate(-823.45 -102)"/><path class="cls-1" d="M972.24,592c0-9.47,8.49-14.21,27.76-16.22,0-5.6-2-11-9.33-11-5.23,0-9.94,2.38-13.48,4.66l-3-5c4.16-2.62,10.51-5.67,17.76-5.67,11,0,15.7,7,15.7,17.88v26.67h-6.32l-.65-5.2h-.25c-4.31,3.45-9.34,6.27-14.95,6.27C977.91,604.31,972.24,599.8,972.24,592Zm27.76.68V580.56c-15.15,1.75-20.27,5.32-20.27,10.87,0,5,3.48,7,7.92,7S995.62,596.34,1000,592.63Z" transform="translate(-823.45 -102)"/><path class="cls-1" d="M1029,598.75h-.25l-.71,4.49h-6.12V539.52h7.65V557l-.25,7.79c4.13-3.43,9.16-6,14.2-6,11.67,0,18,8.72,18,22.12,0,14.85-9.25,23.5-19.57,23.5C1037.67,604.31,1033,602.23,1029,598.75Zm24.57-17.84c0-9.6-3.41-16-11.92-16-3.83,0-7.8,2-12.08,5.93V593.6c4,3.31,8,4.52,11,4.52C1048,598.12,1053.55,591.64,1053.55,580.91Z" transform="translate(-823.45 -102)"/><path class="cls-1" d="M1068.42,621.08l1.49-5.86a12.37,12.37,0,0,0,3.45.65c5.1,0,8.32-3.94,10.19-9.33l1-3.21-18.14-43.57h7.89l9.22,24.07c1.42,3.78,2.94,8.23,4.4,12.25h.38c1.28-4,2.56-8.41,3.79-12.25l8.06-24.07h7.49l-17,47.06c-3.19,8.63-7.86,15.16-16.92,15.16A15.1,15.1,0,0,1,1068.42,621.08Z" transform="translate(-823.45 -102)"/><path class="cls-1" d="M1117.72,589.8v-24H1111v-5.57l7.07-.42.92-12.19h6.39v12.19h12.24v6h-12.24v24.17c0,5.32,1.78,8.4,7,8.4a15.5,15.5,0,0,0,5.15-1.17l1.47,5.55a28.06,28.06,0,0,1-8.38,1.61C1121,604.31,1117.72,598.45,1117.72,589.8Z" transform="translate(-823.45 -102)"/><path class="cls-1" d="M1143.15,581.56c0-14.15,9.91-22.87,20.32-22.87,11.53,0,18,8,18,20.4a22.52,22.52,0,0,1-.35,4.18h-30.44c.55,9.21,6.4,15.18,15,15.18A20.33,20.33,0,0,0,1177,595l2.74,4.82a27.21,27.21,0,0,1-14.92,4.51C1152.74,604.31,1143.15,595.84,1143.15,581.56Zm31.6-3.56c0-8.71-4.08-13.45-11.15-13.45-6.35,0-12,4.91-13,13.45Z" transform="translate(-823.45 -102)"/></svg>