<svg id="radioJitter" xmlns="http://www.w3.org/2000/svg" viewBox="0 0 346.5 178.84"><defs><style>.cls-1,.cls-3{stroke:#000;stroke-miterlimit:10;}.cls-1{stroke-width:2px;}.cls-2{fill:#d22027;}.cls-3{fill:none;stroke-width:5px;}.cls-4{font-size:61.16px;font-family:ArialMT, Arial;}</style></defs><title>RadioJitter</title><circle class="cls-1" cx="138" cy="7" r="6"/><path class="cls-2" d="M1092,434l7-85s38-7,37,17-29,25-29,25l1,17,19,1,19,30-2-6-8-35-18,1s25-4,28-32-29-32-56-27Z" transform="translate(-1082.5 -333.5)"/><circle class="cls-1" cx="7" cy="121" r="6"/><path class="cls-2" d="M1189,338h10v63.48S1189,423,1176,425c0,0,15-7,15-35S1189,338,1189,338Z" transform="translate(-1082.5 -333.5)"/><path class="cls-3" d="M1221,340h-22v60s-4,20-23,25l-9-31-5,63-9-63-8,36-9-31h-21s26,0,31-32-39-29-56-27V454" transform="translate(-1082.5 -333.5)"/><text class="cls-4" transform="translate(92.86 158.99) scale(0.87 1)">RadioJitter</text></svg>