<svg id="IDEMI" xmlns="http://www.w3.org/2000/svg" viewBox="0 0 218.64 137.77"><defs><style>.cls-1{fill:none;stroke:#3fa9f5;stroke-miterlimit:10;stroke-width:3px;}.cls-2{font-size:33.22px;fill:#eb1e23;}.cls-2,.cls-3{font-family:Arial-BoldMT, Arial;font-weight:700;}.cls-3{font-size:15px;}.cls-4{letter-spacing:-0.04em;}.cls-5{letter-spacing:0em;}</style></defs><title>IDEMI</title><polyline class="cls-1" points="155.5 61 170.5 61 155.5 73 159.5 81 146.5 76 148.5 92 133.5 83 134.5 98 122.5 92 122.5 106 115.5 101 98.5 114 83.5 101 74.5 105 78.5 92 64.5 99 66.5 86 52.5 92 57.5 78 42.5 81 46.5 72 25.5 61 45.5 61"/><polyline class="cls-1" points="172.5 61 155.5 47 158.5 37 146.5 42 146.5 29 134.5 34 134.5 20 122.5 22 125.5 10 111.5 13 99.5 2 86.5 13 74.5 8 79.5 25 66.5 19 66.5 36 53.5 25 55.5 42 42.5 37 44.5 47 20.5 61"/><text x="-1287" y="-359.5"/><text class="cls-2" transform="translate(59 71.99) scale(0.95 1)">IDEMI</text><text class="cls-3" transform="translate(0 132.12)">(<tspan class="cls-4" x="5" y="0">A</tspan><tspan class="cls-5" x="15.27" y="0" xml:space="preserve"> Goverment of India Society)</tspan></text></svg>