<svg xmlns="http://www.w3.org/2000/svg" viewBox="0 0 236 236"><defs><style>.cls-1{fill:#b47a37;}.cls-2,.cls-3{fill:none;stroke:#b47a37;stroke-miterlimit:10;}.cls-2{stroke-width:6px;}.cls-3{font-size:22.28px;stroke-width:3px;font-family:SegoeUISymbol, Segoe UI Symbol;letter-spacing:0em;}</style></defs><title>Command And Data</title><g id="Layer_2" data-name="Layer 2"><g id="Layer_1-2" data-name="Layer 1"><path class="cls-1" d="M118,6a112,112,0,0,1,79.2,191.2A112,112,0,0,1,38.8,38.8,111.29,111.29,0,0,1,118,6m0-6A118,118,0,1,0,236,118,118,118,0,0,0,118,0Z"/><polygon class="cls-2" points="175 80.35 175 182 61 182 61 52 145.49 52 175 80.35"/><polygon class="cls-2" points="145 80 145 52 175 80 145 80"/><text class="cls-3" transform="translate(74 111.94) scale(1.84 1)">0101<tspan x="0" y="26.74">1100</tspan><tspan x="0" y="53.48">1011</tspan></text></g></g></svg>