<svg xmlns="http://www.w3.org/2000/svg" viewBox="0 0 236 236"><defs><style>.cls-1{fill:#b47a37;}.cls-2{fill:none;stroke:#b47a37;stroke-miterlimit:10;stroke-width:6px;}</style></defs><title>Payload</title><g id="Layer_2" data-name="Layer 2"><g id="Layer_1-2" data-name="Layer 1"><path class="cls-1" d="M118,6a112,112,0,0,1,79.2,191.2A112,112,0,0,1,38.8,38.8,111.29,111.29,0,0,1,118,6m0-6A118,118,0,1,0,236,118,118,118,0,0,0,118,0Z"/><path class="cls-2" d="M53,49H82.5V80.35S90.8,49,116.62,49s33.19,13.83,38.72,31.35,0,76.52,0,76.52,10.14,22.13,27.66,12v29.5s-38.72,5.53-49.79-22.13l-1.62-64.14a51.13,51.13,0,0,0-6.06-23.23c-5-9.18-13-17-23.1-3.55a38.72,38.72,0,0,0-7.53,24.78l2.36,58.77H68.67V66.52L53,67.44Z"/></g></g></svg>