<svg xmlns="http://www.w3.org/2000/svg" viewBox="0 0 236 236"><defs><style>.cls-1{fill:#b47a37;}</style></defs><title>Structures</title><g id="Layer_2" data-name="Layer 2"><g id="Layer_1-2" data-name="Layer 1"><path class="cls-1" d="M118,6a112,112,0,0,1,79.2,191.2A112,112,0,0,1,38.8,38.8,111.29,111.29,0,0,1,118,6m0-6A118,118,0,1,0,236,118,118,118,0,0,0,118,0Z"/><path class="cls-1" d="M124.69,52V69.75l4.65,1.08a49.22,49.22,0,0,1,25.9,15.42l3.21,3.63,4.22-2.38L174.27,81l6.07,10.78-11.78,6.64-4.14,2.33,1.33,4.57a50,50,0,0,1,2,13.84,49.35,49.35,0,0,1-2.45,15.39l-1.48,4.56,4.11,2.45,12.92,7.71-6.56,11-13-7.75L157.19,150l-3.31,3.44a49.45,49.45,0,0,1-24.54,14l-4.65,1.07V187H112.31V168.61l-4.73-1A49.31,49.31,0,0,1,81.63,152.7l-3.22-3.5-4.14,2.33L62.73,158l-6.07-10.78L68,140.87l4.22-2.37-1.44-4.63A49.89,49.89,0,0,1,70.9,104l1.46-4.54L68.26,97,56.18,89.77l6.56-11,12,7.18,4.12,2.46L82.2,85a49.34,49.34,0,0,1,25.38-14.29l4.73-1V52h12.38m6-6H106.31V64.81a55.38,55.38,0,0,0-28.45,16L60.66,70.56,48,91.85l17.24,10.28A55.74,55.74,0,0,0,65,135.65L48.49,145l12,21.24,16.76-9.45a55.55,55.55,0,0,0,29.1,16.7V193h24.38V173.28a55.51,55.51,0,0,0,27.52-15.65l18.13,10.82,12.71-21.29L171,136.38a55.6,55.6,0,0,0,.53-32.76l17-9.59-12-21.24-16.82,9.48a55.54,55.54,0,0,0-29-17.29V46Z"/><path class="cls-1" d="M118,99a21,21,0,1,1-21,21,21,21,0,0,1,21-21m0-6a27,27,0,1,0,27,27,27,27,0,0,0-27-27Z"/><polygon class="cls-1" points="104.57 98.75 97.45 105.77 130.43 139.25 137.55 132.23 104.57 98.75 104.57 98.75"/></g></g></svg>