<svg xmlns="http://www.w3.org/2000/svg" viewBox="0 0 236 236"><defs><style>.cls-1{fill:#b47a37;}.cls-2{fill:none;stroke:#b47a37;stroke-miterlimit:10;stroke-width:6px;}</style></defs><title>Inorbit Control_1</title><g id="Layer_2" data-name="Layer 2"><g id="Layer_1-2" data-name="Layer 1"><path class="cls-1" d="M118,6a112,112,0,0,1,79.2,191.2A112,112,0,0,1,38.8,38.8,111.29,111.29,0,0,1,118,6m0-6A118,118,0,1,0,236,118,118,118,0,0,0,118,0Z"/><path class="cls-2" d="M163.79,142.78A212.8,212.8,0,0,1,177,162"/><path class="cls-2" d="M58.06,73.28S68.16,74.92,83.27,81"/><path class="cls-2" d="M164.6,143.83A52,52,0,1,1,82.15,80.59"/><path class="cls-2" d="M82.15,80.59a52,52,0,0,1,82.45,63.24"/><circle class="cls-2" cx="110" cy="128" r="10"/><path class="cls-2" d="M177,162c15.19,24.89-53-22-53-22"/><path class="cls-2" d="M94.35,117.73S29,70.5,58.06,73.28"/><line class="cls-2" x1="56.12" y1="73.28" x2="63.52" y2="74.48"/><line class="cls-2" x1="172.3" y1="154.64" x2="179" y2="166"/></g></g></svg>