<svg xmlns="http://www.w3.org/2000/svg" viewBox="0 0 236 236"><defs><style>.cls-1{fill:#b47a37;}.cls-2{fill:none;stroke:#b47a37;stroke-miterlimit:10;stroke-width:9px;}.cls-3{fill:#ba7a34;}</style></defs><title>OnboardComputers</title><g id="Layer_2" data-name="Layer 2"><g id="Layer_1-2" data-name="Layer 1"><path class="cls-1" d="M118,6a112,112,0,0,1,79.2,191.2A112,112,0,0,1,38.8,38.8,111.29,111.29,0,0,1,118,6m0-6A118,118,0,1,0,236,118,118,118,0,0,0,118,0Z"/><rect class="cls-2" x="43" y="61" width="150" height="87" rx="25.46"/><path class="cls-3" d="M79.5,183.5a3,3,0,0,1,0-6h77a3,3,0,0,1,0,6Z"/><path class="cls-1" d="M156.5,179a1.5,1.5,0,0,1,0,3h-77a1.5,1.5,0,0,1,0-3h77m0-3h-77a4.5,4.5,0,0,0,0,9h77a4.5,4.5,0,0,0,0-9Z"/><path class="cls-3" d="M110.25,179A18.26,18.26,0,0,0,115,168.29c.72-7.59-3.15-14.68-5.56-18.29h17.41c-5.52,9.67-7.23,17.7-5.11,23.9a13.84,13.84,0,0,0,3.08,5.1Z"/><path class="cls-1" d="M124.34,151.5c-4.75,9.08-6.1,16.76-4,22.89a16,16,0,0,0,1.47,3.11h-8.5a19.5,19.5,0,0,0,3.21-9.07c.62-6.61-2-12.82-4.37-16.93h12.19m5.16-3h-23s16,19,0,32h23s-16-6,0-32Z"/></g></g></svg>